<svg width="36" height="29" viewBox="0 0 36 29" fill="none" xmlns="http://www.w3.org/2000/svg">
<path fill-rule="evenodd" clip-rule="evenodd" d="M36 7.68812C36 6.67503 35.5937 5.70394 34.8699 4.98867C34.1473 4.27212 33.1663 3.86994 32.1429 3.86994H27.5683C27.0141 3.86994 26.523 3.51994 26.3481 2.9994C26.3096 2.8874 26.2723 2.77412 26.235 2.66212C25.7091 1.10303 24.2357 0.0517578 22.5746 0.0517578H13.4254C11.7643 0.0517578 10.2909 1.10303 9.765 2.66212C9.72772 2.77412 9.69043 2.8874 9.65186 2.9994C9.47701 3.51994 8.98586 3.86994 8.43171 3.86994H3.85714C2.83371 3.86994 1.85271 4.27212 1.13014 4.98867C0.406283 5.70394 0 6.67503 0 7.68812C0 11.8512 0 20.0705 0 24.2336C0 26.3425 1.72671 28.0518 3.85714 28.0518H32.1429C34.2733 28.0518 36 26.3425 36 24.2336V7.68812ZM33.4286 7.68812V24.2336C33.4286 24.9361 32.8526 25.5063 32.1429 25.5063H3.85714C3.14743 25.5063 2.57143 24.9361 2.57143 24.2336C2.57143 20.0705 2.57143 11.8512 2.57143 7.68812C2.57143 7.35085 2.70643 7.0263 2.94814 6.7883C3.18857 6.54903 3.51643 6.41539 3.85714 6.41539H8.43171C10.0929 6.41539 11.5663 5.36412 12.0921 3.80503C12.1294 3.69303 12.1667 3.57976 12.2053 3.46776C12.3801 2.94721 12.8713 2.59721 13.4241 2.59721H22.5746C23.1287 2.59721 23.6199 2.94721 23.7947 3.46776C23.8333 3.57976 23.8706 3.69303 23.9079 3.80503C24.4337 5.36412 25.9071 6.41539 27.5683 6.41539H32.1429C32.4836 6.41539 32.8114 6.54903 33.0519 6.7883C33.2936 7.0263 33.4286 7.35085 33.4286 7.68812ZM18 8.96085C14.4514 8.96085 11.5714 11.8118 11.5714 15.3245C11.5714 18.8372 14.4514 21.6881 18 21.6881C21.5486 21.6881 24.4286 18.8372 24.4286 15.3245C24.4286 11.8118 21.5486 8.96085 18 8.96085ZM18 11.5063C20.1291 11.5063 21.8571 13.2168 21.8571 15.3245C21.8571 17.4321 20.1291 19.1427 18 19.1427C15.8709 19.1427 14.1429 17.4321 14.1429 15.3245C14.1429 13.2168 15.8709 11.5063 18 11.5063Z" fill="black"/>
</svg>
