<svg width="10" height="9" viewBox="0 0 10 9" fill="none" xmlns="http://www.w3.org/2000/svg">
<path d="M9 4.11426V7.17676C9 7.66002 8.60204 8.05176 8.11111 8.05176H1.88889C1.39797 8.05176 1 7.66002 1 7.17676V3.23926C1 2.75601 1.39797 2.36426 1.88889 2.36426H2.55556C2.83534 2.36426 3.0988 2.23459 3.26667 2.01426L3.73333 1.40176C3.9012 1.18143 4.16467 1.05176 4.44444 1.05176H5.55556M7.88889 1.05176V2.14551M7.88889 2.14551V3.23926M7.88889 2.14551H6.77778M7.88889 2.14551H9M6.77778 4.98926C6.77778 5.95576 5.98184 6.73926 5 6.73926C4.01816 6.73926 3.22222 5.95576 3.22222 4.98926C3.22222 4.02276 4.01816 3.23926 5 3.23926C5.98184 3.23926 6.77778 4.02276 6.77778 4.98926Z" stroke="black" stroke-width="0.5" stroke-linecap="round" stroke-linejoin="round"/>
</svg>
