<svg width="14" height="15" viewBox="0 0 14 15" fill="none" xmlns="http://www.w3.org/2000/svg">
<path d="M1.41322 14.0518H12.5869C13.3661 14.0518 14 13.3728 14 12.5382V4.25649C14 3.42188 13.3661 2.74289 12.5869 2.74289H10.1967V1.28577C10.1967 0.60528 9.67991 0.0517578 9.04462 0.0517578H4.95553C4.32024 0.0517578 3.80333 0.60528 3.80333 1.28577V2.74289H1.41322C0.634045 2.74289 0 3.42188 0 4.25649V12.538C0 13.3728 0.634045 14.0518 1.41322 14.0518ZM13.1572 12.5382C13.1572 12.8756 12.9018 13.1492 12.5868 13.1492H1.41322C1.09822 13.1492 0.8428 12.8756 0.8428 12.5382V8.16547C2.10467 8.61901 3.49487 8.92443 4.95553 9.07206V10.0073C4.95553 10.1806 5.08667 10.3211 5.24845 10.3211H8.75187C8.91364 10.3211 9.04478 10.1806 9.04478 10.0073V9.0719C10.5064 8.9241 11.8964 8.61801 13.1574 8.16347L13.1572 12.5382ZM5.79818 9.41831V8.09848H8.20198V9.41831H5.79818ZM4.64598 1.28577C4.64598 1.10315 4.78473 0.954521 4.95538 0.954521H9.04462C9.21511 0.954521 9.35387 1.10315 9.35387 1.28577V2.74289H4.64598V1.28577ZM0.8428 4.25649C0.8428 3.91908 1.09822 3.64548 1.41322 3.64548H12.5871C12.9021 3.64548 13.1574 3.91891 13.1574 4.25632V7.20672C11.9103 7.68609 10.5179 8.00934 9.04478 8.16447V7.5093C9.04478 7.33602 8.91364 7.19555 8.75187 7.19555H5.24829C5.08651 7.19555 4.95538 7.33602 4.95538 7.5093V8.16463C3.4832 8.00967 2.09098 7.68726 0.842644 7.20888V4.25649H0.8428Z" fill="#B3B3B3"/>
</svg>
