<svg width="18" height="19" viewBox="0 0 18 19" fill="none" xmlns="http://www.w3.org/2000/svg">
<path d="M14.1429 0.0517578H3.85714C1.7269 0.0517578 0 1.77866 0 3.9089V14.1946C0 16.3249 1.7269 18.0518 3.85714 18.0518H14.1429C16.2731 18.0518 18 16.3249 18 14.1946V3.9089C18 1.77866 16.2731 0.0517578 14.1429 0.0517578Z" fill="url(#paint0_radial_0_1859)"/>
<path d="M14.1429 0.0517578H3.85714C1.7269 0.0517578 0 1.77866 0 3.9089V14.1946C0 16.3249 1.7269 18.0518 3.85714 18.0518H14.1429C16.2731 18.0518 18 16.3249 18 14.1946V3.9089C18 1.77866 16.2731 0.0517578 14.1429 0.0517578Z" fill="url(#paint1_radial_0_1859)"/>
<path d="M14.1429 0.0517578H3.85714C1.7269 0.0517578 0 1.77866 0 3.9089V14.1946C0 16.3249 1.7269 18.0518 3.85714 18.0518H14.1429C16.2731 18.0518 18 16.3249 18 14.1946V3.9089C18 1.77866 16.2731 0.0517578 14.1429 0.0517578Z" fill="url(#paint2_radial_0_1859)"/>
<path d="M13.5001 5.51604C13.5001 6.04859 13.0684 6.48033 12.5358 6.48033C12.0033 6.48033 11.5715 6.04859 11.5715 5.51604C11.5715 4.98348 12.0033 4.55176 12.5358 4.55176C13.0684 4.55176 13.5001 4.98348 13.5001 5.51604Z" fill="white"/>
<path fill-rule="evenodd" clip-rule="evenodd" d="M8.99993 12.2662C10.7751 12.2662 12.2142 10.8271 12.2142 9.05193C12.2142 7.27675 10.7751 5.83765 8.99993 5.83765C7.22474 5.83765 5.78564 7.27675 5.78564 9.05193C5.78564 10.8271 7.22474 12.2662 8.99993 12.2662ZM8.99993 10.9805C10.0651 10.9805 10.9285 10.1171 10.9285 9.05193C10.9285 7.98678 10.0651 7.12336 8.99993 7.12336C7.93478 7.12336 7.07136 7.98678 7.07136 9.05193C7.07136 10.1171 7.93478 10.9805 8.99993 10.9805Z" fill="white"/>
<path fill-rule="evenodd" clip-rule="evenodd" d="M2.57153 8.79448C2.57153 6.63428 2.57153 5.55415 2.99194 4.72909C3.36173 4.00331 3.9518 3.41325 4.67757 3.04345C5.50264 2.62305 6.58277 2.62305 8.74296 2.62305H9.25725C11.4174 2.62305 12.4976 2.62305 13.3226 3.04345C14.0484 3.41325 14.6385 4.00331 15.0082 4.72909C15.4287 5.55415 15.4287 6.63428 15.4287 8.79448V9.30876C15.4287 11.469 15.4287 12.5491 15.0082 13.3741C14.6385 14.0999 14.0484 14.69 13.3226 15.0598C12.4976 15.4802 11.4174 15.4802 9.25725 15.4802H8.74296C6.58277 15.4802 5.50264 15.4802 4.67757 15.0598C3.9518 14.69 3.36173 14.0999 2.99194 13.3741C2.57153 12.5491 2.57153 11.469 2.57153 9.30876V8.79448ZM8.74296 3.90876H9.25725C10.3586 3.90876 11.1072 3.90976 11.6859 3.95704C12.2496 4.00309 12.5379 4.08657 12.739 4.18903C13.2228 4.43556 13.6161 4.82894 13.8627 5.31276C13.9651 5.51385 14.0487 5.8021 14.0947 6.36583C14.1419 6.94453 14.143 7.69313 14.143 8.79448V9.30876C14.143 10.4101 14.1419 11.1587 14.0947 11.7374C14.0487 12.3011 13.9651 12.5894 13.8627 12.7905C13.6161 13.2743 13.2228 13.6677 12.739 13.9142C12.5379 14.0167 12.2496 14.1002 11.6859 14.1462C11.1072 14.1934 10.3586 14.1945 9.25725 14.1945H8.74296C7.64162 14.1945 6.89301 14.1934 6.31431 14.1462C5.75059 14.1002 5.46233 14.0167 5.26125 13.9142C4.77743 13.6677 4.38405 13.2743 4.13751 12.7905C4.03506 12.5894 3.95158 12.3011 3.90553 11.7374C3.85825 11.1587 3.85725 10.4101 3.85725 9.30876V8.79448C3.85725 7.69313 3.85825 6.94453 3.90553 6.36583C3.95158 5.8021 4.03506 5.51385 4.13751 5.31276C4.38405 4.82894 4.77743 4.43556 5.26125 4.18903C5.46233 4.08657 5.75059 4.00309 6.31431 3.95704C6.89301 3.90976 7.64162 3.90876 8.74296 3.90876Z" fill="white"/>
<defs>
<radialGradient id="paint0_radial_0_1859" cx="0" cy="0" r="1" gradientUnits="userSpaceOnUse" gradientTransform="translate(6.42857 13.5518) rotate(-55.3758) scale(16.4055)">
<stop stop-color="#B13589"/>
<stop offset="0.79309" stop-color="#C62F94"/>
<stop offset="1" stop-color="#8A3AC8"/>
</radialGradient>
<radialGradient id="paint1_radial_0_1859" cx="0" cy="0" r="1" gradientUnits="userSpaceOnUse" gradientTransform="translate(5.78571 18.6946) rotate(-65.1363) scale(14.5248)">
<stop stop-color="#E0E8B7"/>
<stop offset="0.444662" stop-color="#FB8A2E"/>
<stop offset="0.71474" stop-color="#E2425C"/>
<stop offset="1" stop-color="#E2425C" stop-opacity="0"/>
</radialGradient>
<radialGradient id="paint2_radial_0_1859" cx="0" cy="0" r="1" gradientUnits="userSpaceOnUse" gradientTransform="translate(-0.964285 0.694615) rotate(-8.1301) scale(25.0013 5.34752)">
<stop offset="0.156701" stop-color="#406ADC"/>
<stop offset="0.467799" stop-color="#6A45BE"/>
<stop offset="1" stop-color="#6A45BE" stop-opacity="0"/>
</radialGradient>
</defs>
</svg>
