<svg width="16" height="13" viewBox="0 0 16 13" fill="none" xmlns="http://www.w3.org/2000/svg">
<path d="M12.5281 4.13333C12.7849 3.99291 12.8759 3.67677 12.7315 3.42718C12.5871 3.1776 12.2619 3.08906 12.0052 3.22945L8.52293 5.13381C8.19824 5.31138 7.80176 5.31138 7.47707 5.13381L3.9948 3.22945C3.73808 3.08906 3.41291 3.1776 3.26848 3.42718C3.12408 3.67677 3.21515 3.99291 3.47187 4.1333L6.95411 6.03767C7.60352 6.39282 8.39648 6.39282 9.04589 6.03767L12.5281 4.13333Z" fill="#B3B3B3"/>
<path fill-rule="evenodd" clip-rule="evenodd" d="M2.66667 0.0517578C1.19391 0.0517578 0 1.21251 0 2.64435V9.90361C0 11.3354 1.19391 12.4962 2.66667 12.4962H13.3333C14.8061 12.4962 16 11.3355 16 9.90361V2.64435C16 1.21251 14.8061 0.0517578 13.3333 0.0517578H2.66667ZM1.06667 2.64435C1.06667 1.78524 1.78301 1.08879 2.66667 1.08879H13.3333C14.217 1.08879 14.9333 1.78524 14.9333 2.64435V9.90361C14.9333 10.7627 14.217 11.4592 13.3333 11.4592H2.66667C1.78301 11.4592 1.06667 10.7627 1.06667 9.90361V2.64435Z" fill="#B3B3B3"/>
</svg>
