<svg width="60" height="45" viewBox="0 0 60 45" fill="none" xmlns="http://www.w3.org/2000/svg">
<path d="M56 0.0517578H4C1.8 0.0517578 0 1.85176 0 4.05176V40.0518C0 42.2518 1.8 44.0518 4 44.0518H56C58.2 44.0518 60 42.2518 60 40.0518V4.05176C60 1.85176 58.2 0.0517578 56 0.0517578ZM56 4.05176V21.6518C51.8 17.8518 45 12.2518 40.6 12.2518C40.6 12.2518 40.6 12.2518 40.4 12.2518C36.8 12.2518 33.4 15.8518 30 19.4518C27.8 21.6518 25.6 23.8518 24.2 24.6518C22.8 25.2518 19.6 24.8518 17 24.6518C14.2 24.4518 11.6 24.0518 9.6 24.6518C8.2 24.6518 6 25.8518 4 26.8518V4.05176H56ZM4 40.0518V31.4518C6.4 30.0518 9.2 28.4518 10.4 28.2518C11.8 27.8518 14.2 28.2518 16.6 28.4518C20 28.8518 23.4 29.0518 25.8 28.2518C28.2 27.2518 30.6 24.8518 33 22.2518C35.6 19.6518 38.6 16.4518 40.6 16.2518C43.6 16.2518 51 22.4518 55.8 27.2518V40.0518H4Z" fill="#9A9A9A" fill-opacity="0.3"/>
<path d="M19.2 19.8518C22.6 19.8518 25.4 17.0518 25.4 13.6518C25.4 10.2518 22.6 7.45176 19.2 7.45176C15.8 7.45176 13 10.2518 13 13.6518C13 17.0518 15.8 19.8518 19.2 19.8518ZM19.2 11.4518C20.4 11.4518 21.4 12.4518 21.4 13.6518C21.4 14.8518 20.4 15.8518 19.2 15.8518C18 15.8518 17 14.8518 17 13.6518C17 12.4518 18 11.4518 19.2 11.4518Z" fill="#9A9A9A" fill-opacity="0.3"/>
</svg>
