<svg width="21" height="25" viewBox="0 0 21 25" fill="none" xmlns="http://www.w3.org/2000/svg">
<path d="M6.42857 3.55556H3.71429C2.21523 3.55556 1 4.69972 1 6.11111V21.4444C1 22.8559 2.21523 24 3.71429 24H17.2857C18.7848 24 20 22.8559 20 21.4444V6.11111C20 4.69972 18.7848 3.55556 17.2857 3.55556H14.5714M6.42857 3.55556C6.42857 4.96695 7.6438 6.11111 9.14286 6.11111H11.8571C13.3562 6.11111 14.5714 4.96695 14.5714 3.55556M6.42857 3.55556C6.42857 2.14416 7.6438 1 9.14286 1H11.8571C13.3562 1 14.5714 2.14416 14.5714 3.55556M10.5 12.5H14.5714M10.5 17.6111H14.5714M6.42857 12.5H6.44214M6.42857 17.6111H6.44214" stroke="black" stroke-width="1.5" stroke-linecap="round" stroke-linejoin="round"/>
</svg>
