<svg width="25" height="25" viewBox="0 0 25 25" fill="none" xmlns="http://www.w3.org/2000/svg">
<path d="M12.4999 24C15.4899 24 18.2039 22.8615 20.2509 20.987C20.1359 19.906 19.4459 18.848 18.2154 18.02C15.0874 15.927 9.93547 15.927 6.78448 18.02C5.55399 18.848 4.86399 19.906 4.74899 20.987C6.79598 22.8615 9.50997 24 12.4999 24ZM12.4999 24C18.8511 24 23.9999 18.8511 23.9999 12.4999C23.9999 6.1487 18.8511 1 12.4999 1C6.1487 1 1 6.1487 1 12.4999C1 18.8511 6.1487 24 12.4999 24ZM12.6379 13.3969C12.5574 13.3854 12.4539 13.3854 12.3619 13.3969C10.338 13.3279 8.72793 11.6719 8.72793 9.63643C8.72793 7.55494 10.407 5.86445 12.4999 5.86445C14.5814 5.86445 16.2719 7.55494 16.2719 9.63643C16.2604 11.6719 14.6619 13.3279 12.6379 13.3969Z" stroke="black" stroke-width="1.5" stroke-linecap="round" stroke-linejoin="round"/>
</svg>
