<svg width="36" height="43" viewBox="0 0 36 43" fill="none" xmlns="http://www.w3.org/2000/svg">
<path d="M29.5031 22.2424C29.4844 18.8018 31.0406 16.2049 34.1906 14.2924C32.4281 11.7705 29.7656 10.383 26.25 10.1111C22.9219 9.84863 19.2844 12.0518 17.9531 12.0518C16.5469 12.0518 13.3219 10.2049 10.7906 10.2049C5.55937 10.2893 0 14.3768 0 22.6924C0 25.1486 0.45 27.6861 1.35 30.3049C2.55 33.7455 6.88125 42.183 11.4 42.0424C13.7625 41.9861 15.4312 40.3643 18.5062 40.3643C21.4875 40.3643 23.0344 42.0424 25.6687 42.0424C30.225 41.9768 34.1437 34.308 35.2875 30.858C29.175 27.9799 29.5031 22.4205 29.5031 22.2424ZM24.1969 6.84863C26.7563 3.81113 26.5219 1.04551 26.4469 0.0517578C24.1875 0.183008 21.5719 1.58926 20.0812 3.32363C18.4406 5.17988 17.475 7.47676 17.6813 10.0643C20.1281 10.2518 22.3594 8.99551 24.1969 6.84863Z" fill="black"/>
</svg>
