<svg width="81" height="97" viewBox="0 0 81 97" fill="none" xmlns="http://www.w3.org/2000/svg">
<g clip-path="url(#clip0_0_1780)">
<g style="mix-blend-mode:multiply">
<path fill-rule="evenodd" clip-rule="evenodd" d="M24.2709 20.7597C5.18097 31.9193 -2.74026 47.8479 2.17124 61.6263C6.68514 74.4786 26.3297 81.1727 80.352 60.0861C71.2463 61.9327 42.3321 62.1635 23.4799 57.3161C4.62629 52.4659 -5.43303 42.1541 24.2709 20.7583V20.7597Z" fill="black"/>
</g>
<g style="mix-blend-mode:multiply">
<path fill-rule="evenodd" clip-rule="evenodd" d="M32.2698 81.4818C47.7967 90.873 61.8959 90.333 67.9946 79.0951C74.4103 67.2431 66.8852 42.3093 15.0024 0.904053C22.7666 9.52449 43.1215 40.4626 52.2328 62.1634C60.4696 81.8665 59.9941 95.1049 32.2698 81.4804V81.4818Z" fill="black"/>
</g>
<g style="mix-blend-mode:multiply">
<path fill-rule="evenodd" clip-rule="evenodd" d="M61.4995 44.8498C64.7469 22.6062 56.1153 11.448 40.2701 16.7585C25.0644 21.8395 8.50735 46.3117 5.41699 96.7207C7.2409 89.6377 18.8044 63.4728 32.1918 43.4634C47.3225 20.8365 63.0857 8.29195 61.4995 44.8498Z" fill="black"/>
</g>
</g>
<defs>
<clipPath id="clip0_0_1780">
<rect width="79.6015" height="95.8166" fill="white" transform="translate(0.749023 0.904053)"/>
</clipPath>
</defs>
</svg>
