<svg width="19" height="16" viewBox="0 0 19 16" fill="none" xmlns="http://www.w3.org/2000/svg">
<path d="M0.292893 7.34465C-0.0976311 7.73518 -0.0976311 8.36834 0.292893 8.75886L6.65685 15.1228C7.04738 15.5134 7.68054 15.5134 8.07107 15.1228C8.46159 14.7323 8.46159 14.0991 8.07107 13.7086L2.41421 8.05176L8.07107 2.3949C8.46159 2.00438 8.46159 1.37121 8.07107 0.98069C7.68054 0.590166 7.04738 0.590166 6.65685 0.98069L0.292893 7.34465ZM18 9.05176C18.5523 9.05176 19 8.60404 19 8.05176C19 7.49947 18.5523 7.05176 18 7.05176V9.05176ZM1 9.05176H18V7.05176H1V9.05176Z" fill="black"/>
</svg>
