<svg width="18" height="24" viewBox="0 0 18 24" fill="none" xmlns="http://www.w3.org/2000/svg">
<path d="M17.5527 14.24C16.7976 13.033 16.3973 11.6378 16.3976 10.214V7.72472C16.4199 5.76895 15.6868 3.87999 14.351 2.45129C13.0152 1.02259 11.1797 0.164313 9.22687 0.0552381C8.2366 0.0248503 7.25031 0.193712 6.32656 0.551802C5.4028 0.909891 4.56039 1.44991 3.84933 2.13981C3.13827 2.8297 2.57306 3.65542 2.18723 4.56794C1.80141 5.48046 1.60284 6.4612 1.6033 7.45194V10.214C1.60334 11.6379 1.20275 13.0331 0.447344 14.24C0.168826 14.6861 0.0147175 15.1986 0.00100279 15.7243C-0.012712 16.25 0.114466 16.7697 0.369347 17.2297C0.624227 17.6897 0.997528 18.0731 1.45053 18.3402C1.90354 18.6073 2.41974 18.7483 2.94562 18.7486H15.0535C15.5794 18.7485 16.0958 18.6076 16.5489 18.3405C17.002 18.0735 17.3754 17.6901 17.6304 17.2301C17.8854 16.7701 18.0127 16.2503 17.999 15.7245C17.9853 15.1987 17.8312 14.6862 17.5527 14.24ZM16.0564 16.3575C15.9585 16.5374 15.8135 16.6874 15.6371 16.7914C15.4606 16.8954 15.2592 16.9495 15.0544 16.9481H2.94652C2.74217 16.9476 2.54167 16.8924 2.36581 16.7883C2.18995 16.6842 2.04511 16.535 1.9463 16.3562C1.8475 16.1773 1.79832 15.9752 1.80386 15.771C1.8094 15.5667 1.86946 15.3676 1.97782 15.1943C2.91181 13.7011 3.40692 11.9753 3.40656 10.214V7.45194C3.40656 5.96821 3.99578 4.54522 5.04468 3.49582C6.09357 2.44642 7.51628 1.85651 9 1.8558C9.05762 1.8558 9.11613 1.8558 9.17375 1.8558C10.6589 1.94781 12.0514 2.60891 13.0616 3.70154C14.0717 4.79417 14.6217 6.2342 14.597 7.72202V10.2113C14.5951 11.9731 15.089 13.7 16.0222 15.1943C16.1325 15.367 16.1939 15.5665 16.1998 15.7713C16.2057 15.9762 16.1567 16.1788 16.0564 16.3575Z" fill="black"/>
<path d="M12.5696 19.982C12.3629 19.8629 12.1174 19.8307 11.887 19.8925C11.6566 19.9543 11.4601 20.105 11.3407 20.3115C11.1039 20.7229 10.7629 21.0646 10.3519 21.3022C9.94098 21.5398 9.47468 21.665 9 21.665C8.52532 21.665 8.05902 21.5398 7.64808 21.3022C7.23714 21.0646 6.89609 20.7229 6.65927 20.3115C6.60059 20.2083 6.52207 20.1177 6.42824 20.045C6.3344 19.9722 6.22711 19.9188 6.11253 19.8877C5.99794 19.8566 5.87834 19.8484 5.7606 19.8637C5.64287 19.879 5.52932 19.9175 5.4265 19.9768C5.32367 20.0362 5.23361 20.1153 5.16149 20.2096C5.08937 20.3039 5.03662 20.4116 5.00627 20.5264C4.97592 20.6412 4.96858 20.7608 4.98466 20.8785C5.00075 20.9961 5.03994 21.1094 5.09999 21.2118C5.49496 21.8965 6.06326 22.4651 6.74772 22.8604C7.43218 23.2557 8.20867 23.4639 8.9991 23.4639C9.78953 23.4639 10.566 23.2557 11.2505 22.8604C11.9349 22.4651 12.5032 21.8965 12.8982 21.2118C13.0177 21.0051 13.0502 20.7595 12.9885 20.5289C12.9269 20.2983 12.7762 20.1016 12.5696 19.982Z" fill="black"/>
</svg>
