<svg width="21" height="20" viewBox="0 0 21 20" fill="none" xmlns="http://www.w3.org/2000/svg">
<path d="M17.375 2.5H6.125C5.95924 2.5 5.80027 2.56585 5.68306 2.68306C5.56585 2.80027 5.5 2.95924 5.5 3.125C5.5 3.29076 5.56585 3.44973 5.68306 3.56694C5.80027 3.68415 5.95924 3.75 6.125 3.75H16.75V14.375C16.75 14.5408 16.8158 14.6997 16.9331 14.8169C17.0503 14.9342 17.2092 15 17.375 15C17.5408 15 17.6997 14.9342 17.8169 14.8169C17.9342 14.6997 18 14.5408 18 14.375V3.125C18 2.95924 17.9342 2.80027 17.8169 2.68306C17.6997 2.56585 17.5408 2.5 17.375 2.5Z" fill="#FFC000"/>
<path d="M14.875 5H3.625C3.27982 5 3 5.27982 3 5.625V16.875C3 17.2202 3.27982 17.5 3.625 17.5H14.875C15.2202 17.5 15.5 17.2202 15.5 16.875V5.625C15.5 5.27982 15.2202 5 14.875 5Z" fill="#FFC000"/>
</svg>
