<svg width="10" height="10" viewBox="0 0 10 10" fill="none" xmlns="http://www.w3.org/2000/svg">
<path d="M9.59086 4.11898C9.36518 4.11898 9.18218 4.302 9.18218 4.5277V8.26067C9.18218 8.76885 8.76896 9.18256 8.26038 9.18256H1.73962C1.23104 9.18256 0.817819 8.76885 0.817819 8.26067V1.73933C0.817819 1.23115 1.23104 0.817439 1.73962 0.817439H5.51721C5.74289 0.817439 5.92589 0.634423 5.92589 0.408719C5.92589 0.183015 5.74289 0 5.51721 0H1.73962C0.780583 0 0 0.7802 0 1.73933V8.26067C0 9.2198 0.780583 10 1.73962 10H8.26038C9.21942 10 10 9.2198 10 8.26067V4.5277C10 4.302 9.81655 4.11898 9.59086 4.11898Z" fill="black"/>
<path d="M7.22187 0.41099L3.58596 4.04723C3.30987 4.32289 3.17592 4.71435 3.22359 5.10127L3.21406 6.37466C3.2136 6.48411 3.25674 6.58946 3.33394 6.66667C3.41068 6.74341 3.51467 6.78656 3.6232 6.78656C3.6241 6.78656 3.62547 6.78656 3.62637 6.78656L4.89965 6.77702C5.28472 6.8247 5.6775 6.69119 5.95314 6.41508L9.5895 2.77884C9.81609 2.55223 9.94278 2.25204 9.94642 1.9337C9.9505 1.61217 9.8279 1.31017 9.60222 1.08492L8.91563 0.398728C8.45155 -0.065395 7.69185 -0.0590372 7.22187 0.41099ZM9.1286 1.92371C9.12769 2.02725 9.08546 2.12534 9.01054 2.20027L5.37417 5.83651C5.27291 5.93733 5.13078 5.98638 4.98683 5.96367C4.96594 5.96049 4.94551 5.95913 4.92462 5.95913C4.92371 5.95913 4.92235 5.95913 4.92144 5.95913L4.03415 5.96594L4.04096 5.07811C4.04096 5.05631 4.03914 5.03497 4.03596 5.01317C4.01417 4.87148 4.06185 4.72616 4.16311 4.62534L7.79902 0.989101C7.95159 0.837875 8.19226 0.831517 8.33757 0.975931L9.02416 1.66213C9.09272 1.73115 9.12996 1.8238 9.1286 1.92371Z" fill="black"/>
</svg>
