<svg width="42" height="43" viewBox="0 0 42 43" fill="none" xmlns="http://www.w3.org/2000/svg">
<path d="M42 21.0518C42 9.45254 32.5993 0.0517578 21 0.0517578C9.40078 0.0517578 0 9.45254 0 21.0518C0 31.5353 7.67812 40.2225 17.7187 41.7975V27.1221H12.3867V21.0518H17.7187V16.4252C17.7187 11.1629 20.8524 8.25489 25.6511 8.25489C27.9481 8.25489 30.3515 8.66504 30.3515 8.66504V13.833H27.7019C25.0933 13.833 24.2813 15.4531 24.2813 17.1143V21.0518H30.1054L29.1743 27.1221H24.2813V41.7975C34.3218 40.2225 42 31.5353 42 21.0518Z" fill="#1877F2"/>
<path d="M29.1743 27.1221L30.1054 21.0518H24.2813V17.1143C24.2813 15.4531 25.0933 13.833 27.7019 13.833H30.3515V8.66504C30.3515 8.66504 27.9481 8.25489 25.6511 8.25489C20.8524 8.25489 17.7187 11.1629 17.7187 16.4252V21.0518H12.3867V27.1221H17.7187V41.7975C18.7893 41.9657 19.8843 42.0518 21 42.0518C22.1157 42.0518 23.2107 41.9657 24.2813 41.7975V27.1221H29.1743Z" fill="white"/>
</svg>
