<svg width="42" height="43" viewBox="0 0 42 43" fill="none" xmlns="http://www.w3.org/2000/svg">
<path d="M41.5915 16.9389H39.9V16.8518H21V25.2518H32.8681C31.1367 30.1416 26.4841 33.6518 21 33.6518C14.0416 33.6518 8.4 28.0101 8.4 21.0518C8.4 14.0934 14.0416 8.45176 21 8.45176C24.2119 8.45176 27.1341 9.66346 29.359 11.6427L35.2989 5.70286C31.5483 2.20741 26.5314 0.0517578 21 0.0517578C9.40275 0.0517578 0 9.45451 0 21.0518C0 32.649 9.40275 42.0518 21 42.0518C32.5972 42.0518 42 32.649 42 21.0518C42 19.6437 41.8551 18.2693 41.5915 16.9389Z" fill="#FFC107"/>
<path d="M2.4213 11.2773L9.32085 16.3373C11.1877 11.7152 15.709 8.45176 21 8.45176C24.2119 8.45176 27.1341 9.66346 29.359 11.6427L35.2989 5.70286C31.5483 2.20741 26.5314 0.0517578 21 0.0517578C12.9339 0.0517578 5.9388 4.60561 2.4213 11.2773Z" fill="#FF3D00"/>
<path d="M21 42.0518C26.4243 42.0518 31.353 39.9759 35.0794 36.6002L28.5799 31.1003C26.4715 32.6973 23.8507 33.6518 21 33.6518C15.5379 33.6518 10.9 30.1689 9.15285 25.3085L2.30475 30.5847C5.78025 37.3856 12.8383 42.0518 21 42.0518Z" fill="#4CAF50"/>
<path d="M41.5915 16.9389H39.9V16.8518H21V25.2518H32.8681C32.0365 27.6006 30.5256 29.6261 28.5768 31.1013C28.5778 31.1003 28.5789 31.1013 28.5799 31.1003L35.0794 36.6002C34.6195 37.0181 42 31.5518 42 21.0518C42 19.6437 41.8551 18.2693 41.5915 16.9389Z" fill="#1976D2"/>
</svg>
