<svg width="18" height="19" viewBox="0 0 18 19" fill="none" xmlns="http://www.w3.org/2000/svg">
<path d="M16.6721 0.051826H1.32787C0.979718 0.0482828 0.644381 0.182996 0.395438 0.426407C0.146495 0.669818 0.00428035 1.00204 0 1.35019V16.7564C0.00505444 17.104 0.147609 17.4355 0.396468 17.6783C0.645326 17.9211 0.980223 18.0554 1.32787 18.0518H16.6721C17.0203 18.0546 17.3554 17.9194 17.6042 17.6759C17.853 17.4323 17.9953 17.1001 18 16.752V1.34576C17.9938 0.998639 17.8508 0.667997 17.6022 0.425703C17.3535 0.18341 17.0193 0.049049 16.6721 0.051826Z" fill="#0076B2"/>
<path d="M2.66461 6.79888H5.33658V15.3961H2.66461V6.79888ZM4.00133 2.52019C4.30779 2.52019 4.60737 2.61108 4.86216 2.78137C5.11695 2.95167 5.31552 3.1937 5.43273 3.47686C5.54994 3.76003 5.58053 4.07159 5.52063 4.37214C5.46074 4.67269 5.31305 4.94873 5.09624 5.16533C4.87944 5.38192 4.60326 5.52935 4.30265 5.58896C4.00205 5.64857 3.69051 5.61768 3.40746 5.5002C3.12441 5.38272 2.88256 5.18393 2.71252 4.92897C2.54247 4.67402 2.45186 4.37435 2.45215 4.06789C2.45254 3.65728 2.61593 3.26362 2.90641 2.97341C3.1969 2.6832 3.59072 2.52019 4.00133 2.52019Z" fill="white"/>
<path d="M7.01262 6.79881H9.57393V7.97913H9.60934C9.96639 7.3034 10.8369 6.59077 12.1367 6.59077C14.8426 6.58487 15.3443 8.36569 15.3443 10.6747V15.396H12.6723V11.2132C12.6723 10.2173 12.6546 8.9352 11.2839 8.9352C9.91328 8.9352 9.68016 10.0211 9.68016 11.1483V15.396H7.01262V6.79881Z" fill="white"/>
</svg>
