<svg width="16" height="19" viewBox="0 0 16 19" fill="none" xmlns="http://www.w3.org/2000/svg">
<path fill-rule="evenodd" clip-rule="evenodd" d="M2.63398 6.51898H3.2316V4.82298C3.2316 0.625964 8.34905 -1.56455 11.3682 1.455C12.2321 2.31893 12.7684 3.51114 12.7684 4.82298V6.51898C13.7191 6.51898 14.4481 6.51373 15.2267 7.29233C15.7038 7.76949 16 8.42804 16 9.15296V15.5762C16 17.0261 14.8157 18.2102 13.366 18.2102H2.63398C1.18433 18.2102 0 17.0261 0 15.5762V9.15296C0 7.70311 1.18433 6.51898 2.63398 6.51898ZM4.15082 6.51898H11.8492C11.8492 4.81047 12.0455 3.43245 10.7181 2.10487C8.27682 -0.336635 4.15082 1.44208 4.15082 4.82298V6.51898ZM13.3662 7.4382H2.63398C1.69176 7.4382 0.91922 8.21074 0.91922 9.15296V15.5762C0.91922 16.5184 1.69176 17.291 2.63398 17.291H13.3662C14.3082 17.291 15.081 16.5184 15.081 15.5762V9.15296C15.0808 8.21074 14.3082 7.4382 13.3662 7.4382Z" fill="#B3B3B3"/>
</svg>
