<svg width="32" height="15" viewBox="0 0 32 15" fill="none" xmlns="http://www.w3.org/2000/svg">
<path d="M31 0.0517578H1C0.734784 0.0517578 0.48043 0.157115 0.292893 0.344651C0.105357 0.532188 0 0.786541 0 1.05176C0 1.31697 0.105357 1.57133 0.292893 1.75886C0.48043 1.9464 0.734784 2.05176 1 2.05176H31C31.2652 2.05176 31.5196 1.9464 31.7071 1.75886C31.8946 1.57133 32 1.31697 32 1.05176C32 0.786541 31.8946 0.532188 31.7071 0.344651C31.5196 0.157115 31.2652 0.0517578 31 0.0517578Z" fill="black" fill-opacity="0.5"/>
<path d="M26 6.05176H6C5.73478 6.05176 5.48043 6.15711 5.29289 6.34465C5.10536 6.53219 5 6.78654 5 7.05176C5 7.31697 5.10536 7.57133 5.29289 7.75887C5.48043 7.9464 5.73478 8.05176 6 8.05176H26C26.2652 8.05176 26.5196 7.9464 26.7071 7.75887C26.8946 7.57133 27 7.31697 27 7.05176C27 6.78654 26.8946 6.53219 26.7071 6.34465C26.5196 6.15711 26.2652 6.05176 26 6.05176Z" fill="black" fill-opacity="0.5"/>
<path d="M21 12.0518H11C10.7348 12.0518 10.4804 12.1571 10.2929 12.3447C10.1054 12.5322 10 12.7865 10 13.0518C10 13.317 10.1054 13.5713 10.2929 13.7589C10.4804 13.9464 10.7348 14.0518 11 14.0518H21C21.2652 14.0518 21.5196 13.9464 21.7071 13.7589C21.8946 13.5713 22 13.317 22 13.0518C22 12.7865 21.8946 12.5322 21.7071 12.3447C21.5196 12.1571 21.2652 12.0518 21 12.0518Z" fill="black" fill-opacity="0.5"/>
</svg>
